# xmcd
#
# Track frame offsets: 
#        200
#        9725
#        12725
#        28550
#        39125
#        41900
#        54950
#        65225
#        67775
#        77150
#        87200
#        90575
#        98300
#        108650
#        110825
#        122750
#        127625
#        129425
#        142550
#        145175
#        157325
#        161150
#
# Disc length: 2275 seconds
#
# Revision: 1
# Processed by: cddbd v1.5.2PL0 Copyright (c) Steve Scherf et al.
# Submitted via: ExactAudioCopyFreeDBPlugin 1.0
#
DISCID=2008e116
DTITLE=Various Artist - Das Spardosen-Terzett
DYEAR=1900
DGENRE=Jazz
TTITLE0=U. Busse, K. Rupprich, A. Slawik - Eine Reise ins Glück
TTITLE1=H. Amann - Die Blitz-Insel
TTITLE2=Hagen - Harlem Nocturne
TTITLE3=Zequinha Abreu - Tico-Tico
TTITLE4=H. Amann - Die Swing-Insel
TTITLE5=J. Zawinul - Birdland
TTITLE6=C. Velazques - Besame Mucho
TTITLE7=H. Amann - Die Walzer-Insel
TTITLE8=Peretti, Creatore, Weiss - Frank
TTITLE9=Th. Monk - Blue Monk
TTITLE10=H. Amann - Die "Take five"-Insel
TTITLE11=W. Shanklin - Chanson d'amour
TTITLE12=C. Porter - I Like Paris
TTITLE13=Die Latin-Insel
TTITLE14=Spanish Eyes
TTITLE15=It's only a Papermoon
TTITLE16=Die Twist-Insel
TTITLE17=Grand Champion
TTITLE18=Die Tango-Insel
TTITLE19=Amor, Amor, Amor
TTITLE20=Auf Wiederseh'n
TTITLE21=Eine Reise ins Glück 2
EXTD=
EXTT0=
EXTT1=
EXTT2=
EXTT3=
EXTT4=
EXTT5=
EXTT6=
EXTT7=
EXTT8=
EXTT9=
EXTT10=
EXTT11=
EXTT12=
EXTT13=
EXTT14=
EXTT15=
EXTT16=
EXTT17=
EXTT18=
EXTT19=
EXTT20=
EXTT21=
PLAYORDER=
